# xmcd
#
# Track frame offsets: 
#        150
#        20504
#        39251
#        56918
#        75269
#        82991
#        105310
#        117980
#        135766
#        148864
#        167476
#        184000
#        203418
#        215814
#        236033
#
# Disc length: 3383 seconds
#
# Revision: 0
# Processed by: cddbd v1.5.2PL0 Copyright (c) Steve Scherf et al.
# Submitted via: ExactAudioCopy v0.99pb5
#
DISCID=bc0d350f
DTITLE=Himuki - Liberalism
DYEAR=2005
DGENRE=Hip-Hop
TTITLE0=DROME
TTITLE1=Breath Deeper feat. Goku
TTITLE2=Sun above the Horizon
TTITLE3=Raw Deal feat. Val
TTITLE4=FUNTRUDE
TTITLE5=Side Step feat. Omni
TTITLE6=Technique sect
TTITLE7=Bonez feat. Omni, Molman
TTITLE8=One Night Wonder
TTITLE9=Remember? feat. Dizzy from Ugly Duckling
TTITLE10=Wanted U Down
TTITLE11=Raw Deal (Shin-Ski Remix)
TTITLE12=S-SUN
TTITLE13=Breath Deeper Remix
TTITLE14=Outro
EXTD=
EXTT0=
EXTT1=
EXTT2=
EXTT3=
EXTT4=
EXTT5=
EXTT6=
EXTT7=
EXTT8=
EXTT9=
EXTT10=
EXTT11=
EXTT12=
EXTT13=
EXTT14=
PLAYORDER=
